<svg xmlns="http://www.w3.org/2000/svg" viewBox="450 430 1200 1200" width="1024" height="1024"serveAspectRatio="none" display="block">
    <path fill="#5E51A0" d="M748.614 1124.45l75.468-183.045a4939.995 4939.995 0 0020.491-51.25c2.797-7.164 6.659-19.087 9.952-25.431l1.12.989c8.745 18.945 17.334 43.57 25.399 63.413a9491.228 9491.228 0 0153.189 129.954l17.04 42.01c2.413 5.96 6.969 18.21 10.098 23.28 1.84-11.29 14.724-116.03 16.108-118.5 2.8 5.57 15.099 110.39 16.042 122.2 8.659.61 16.739 1.09 25.339 2.49-4.23 4.81-6.37 6.48-11.24 10.39l.65 9.46c5.28-5.3 12.54-14.04 17.71-19.85 17.62 3.76 54.37 6.93 72.99 9.04a5053.38 5053.38 0 00144.32 14.64 13003.596 13003.596 0 01-202.56 186.07c4.67 15.52 8.98 37.6 12.6 53.77l21.4 94.87 16.25 70.72c2.67 11.45 8.27 32.92 9.46 44.15l.64 2.22-.99.69c-4.77-1.26-59.1-30.86-66.72-34.91a14926.618 14926.618 0 00-177.899-93.54c-82.141 41.72-165.075 88.68-247.215 129.24 13.128-65.41 31.938-131.19 45.71-196.64 4.85-23.05 10.409-47.99 16.452-70.72-22.077-22.49-199.679-179.32-202.24-185.41l1.681-.49c13.781-.8 27.851-2.75 41.629-3.99 79.042-7.13 158.164-18.53 237.126-25.82z" />
    <path fill="#212155" d="M961.371 1124.37c1.84-11.29 14.724-116.03 16.108-118.5 2.8 5.57 15.099 110.39 16.042 122.2 8.659.61 16.739 1.09 25.339 2.49-4.23 4.81-6.37 6.48-11.24 10.39l.65 9.46-2.26 3.61c2.16 3.75 32.18 7.01 38.48 7.92 22.12 3.21 44.27 6.28 66.43 9.19 7.6 1.01 26.78 3.08 33.43 5.08-20.68 2.61-41.36 5.12-62.06 7.52-3.74.44-25.36 2.97-28.03 3.96-4.2 2.25-10.33 2.91-12.75 5.49-.54 2-1.05 4.02-1.51 6.05-7.32-.55-26.87-1.36-32.24-4.27l-1.84.93c-3.7 3.72-6.213 3.04-8.822 7.37a1784.4 1784.4 0 00-12.318 89.99c-2.12 16.27-3.971 37.3-6.849 52.88-.223 3.95-1.471 6.48-3.482 9.89 8.038 37.19 17.768 80.11 27.261 117.02-46.546-23.97-101.423-52.46-147.069-78.13a10473.434 10473.434 0 01-145.373 76.78l37.05-158.86c-6.127-5.06-12.316-10.88-18.011-16.46-32.107-31.44-66.924-61.14-98.437-93.04 7.169-1.13 15.383-2.08 22.605-2.72 46.919-4.21 94.11-11.47 141.044-14.91 20.542-44.6 40.621-93.31 60.756-138.58 17.657 34.71 35.164 79.07 50.755 115.38 11.407-1.6 22.798-3.31 34.173-5.13 3.401-.32 6.689-.24 9.556-1.91.262-2.66-.127-2.09-2.455-4.94 2.03-2.38 4.692-3.04 7.669-4.24 1.464 1.22.9.8 2.905 1.33 4.094-3.63 4.804-17.76 4.493-23.24z" />
    <path fill="#F8D322" d="M961.371 1124.37c1.84-11.29 14.724-116.03 16.108-118.5 2.8 5.57 15.099 110.39 16.042 122.2 8.659.61 16.739 1.09 25.339 2.49-4.23 4.81-6.37 6.48-11.24 10.39l.65 9.46-2.26 3.61c2.16 3.75 32.18 7.01 38.48 7.92 22.12 3.21 44.27 6.28 66.43 9.19 7.6 1.01 26.78 3.08 33.43 5.08-20.68 2.61-41.36 5.12-62.06 7.52-3.74.44-25.36 2.97-28.03 3.96-4.2 2.25-10.33 2.91-12.75 5.49-.54 2-1.05 4.02-1.51 6.05-7.32-.55-26.87-1.36-32.24-4.27l-1.84.93c-3.7 3.72-6.213 3.04-8.822 7.37a1784.4 1784.4 0 00-12.318 89.99c-2.12 16.27-3.971 37.3-6.849 52.88-2.136-9.29-4.478-29.22-6.001-39.29-.523-10.17-3.226-27.32-4.641-37.83a2712.118 2712.118 0 00-9.49-65.72l-9.191 7.52c-1.997-3.41-2.259-4.05-5.016-6.77l6.858-8.42-13.301-2.15c-42.545-6.87-86.473-11.51-128.195-18.5 25.092-2.25 71.436-7.94 96.076-12.47 11.407-1.6 22.798-3.31 34.173-5.13 3.401-.32 6.689-.24 9.556-1.91.262-2.66-.127-2.09-2.455-4.94 2.03-2.38 4.692-3.04 7.669-4.24 1.464 1.22.9.8 2.905 1.33 4.094-3.63 4.804-17.76 4.493-23.24z" />
    <path fill="#31AFDD" d="M993.521 1128.07c8.659.61 16.739 1.09 25.339 2.49-4.23 4.81-6.37 6.48-11.24 10.39-3.44 2.45-7.14 4.83-10.662 7.18-1.672-7.2-2.446-12.71-3.437-20.06z" />
    <path fill="#605783" d="M1007.76 1194.96c7.4-2.2 38.44-6.57 46.5-7.27-4.2 2.25-10.33 2.91-12.75 5.49-.54 2-1.05 4.02-1.51 6.05-7.32-.55-26.87-1.36-32.24-4.27zM963.836 1312.87c1.977-2.26 5.481-4.31 8.094-6.03 1.523 10.07 3.865 30 6.001 39.29-.223 3.95-1.471 6.48-3.482 9.89l-10.613-43.15z" />
    <path fill="#EFD346" d="M943.592 1204.04c2.757 2.72 3.019 3.36 5.016 6.77a1928.458 1928.458 0 00-40.094 35.18c4.752-7.41 13.896-16.21 16.756-20.99 4.398-4.14 13.964-15.9 18.322-20.96z" />
    <path fill="#271F23" d="M937.149 1193.47l13.301 2.15-6.858 8.42c-4.358 5.06-13.924 16.82-18.322 20.96 4.708-14.39 14.792-15.34 11.879-31.53z" />
    <path fill="#DF3679" d="M670.418 1340.16c-22.077-22.49-199.679-179.32-202.24-185.41l1.681-.49c13.59 6.83 56.958 18.51 74.688 24.91 53.184 48.64 110.655 100.87 162.306 150.84-13.672 66.22-30.999 131.78-45.205 197.89-1.073 5-2.107 10.05-3.495 14.96 66.71-31.78 132.074-71.37 198.143-103.2 32.836 19.37 67.998 35.63 101.282 54.25 30.74 17.2 64.382 32.53 94.132 51.17 9.98 11.79 19.85 23.68 29.59 35.68 4.83 5.98 14.3 18.43 19.14 23.06l.64 2.22-.99.69c-4.77-1.26-59.1-30.86-66.72-34.91a14926.618 14926.618 0 00-177.899-93.54c-82.141 41.72-165.075 88.68-247.215 129.24 13.128-65.41 31.938-131.19 45.71-196.64 4.85-23.05 10.409-47.99 16.452-70.72z" />
    <path fill="#31AFDD" d="M1025.98 1130.56c17.62 3.76 54.37 6.93 72.99 9.04a5053.38 5053.38 0 00144.32 14.64 13003.596 13003.596 0 01-202.56 186.07c4.67 15.52 8.98 37.6 12.6 53.77l21.4 94.87 16.25 70.72c2.67 11.45 8.27 32.92 9.46 44.15-4.84-4.63-14.31-17.08-19.14-23.06-9.74-12-19.61-23.89-29.59-35.68-6.94-25.77-12.96-55.26-18.98-81.57-10.2-44.94-20.78-89.8-31.73-134.56 19.24-16 39.2-35.28 57.67-52.47 34.6-32.61 69.47-64.94 104.6-96.98-6.19-1.57-12.92-1.57-18.92-3.29-6.65-2-25.83-4.07-33.43-5.08-22.16-2.91-44.31-5.98-66.43-9.19-6.3-.91-36.32-4.17-38.48-7.92l2.26-3.61c5.28-5.3 12.54-14.04 17.71-19.85z" />
    <path fill="#212155" d="M748.614 1124.45l75.468-183.045a4939.995 4939.995 0 0020.491-51.25c2.797-7.164 6.659-19.087 9.952-25.431l1.12.989c-1.177 8.282-.832 24.76-.823 33.558.162 19.583.124 39.167-.114 58.75-10.13 25.871-21.785 50.249-32.22 75.939l-29.679 71.09c-6.654 16.09-13.757 34.91-21.289 50.32l-159.889 16.98c-21.041 2.16-46.417 5.47-67.084 6.82-17.73-6.4-61.098-18.08-74.688-24.91 13.781-.8 27.851-2.75 41.629-3.99 79.042-7.13 158.164-18.53 237.126-25.82z" />
    <path fill="#31AFDD" d="M855.645 865.713c8.745 18.945 17.334 43.57 25.399 63.413a9491.228 9491.228 0 0153.189 129.954l17.04 42.01c2.413 5.96 6.969 18.21 10.098 23.28.311 5.48-.399 19.61-4.493 23.24-2.005-.53-1.441-.11-2.905-1.33l-11.944-11.72c-4.647-4.78-15.587-13.48-21.346-18.63-4.626-8.73-16.084-38.97-20.562-49.79a7878.537 7878.537 0 00-45.413-108.119c.238-19.583.276-39.167.114-58.75-.009-8.798-.354-25.276.823-33.558z" />
    <path fill="#212155" d="M1005.92 1195.89l2.51 3.95c10.98 12.94 21.72 26.58 33.21 38.95l.09 1.73-.92.12c-9.31 7.73-49.709 44.49-56.03 52.61a1784.4 1784.4 0 0112.318-89.99c2.609-4.33 5.122-3.65 8.822-7.37z" />
    <path fill="#EFD346" d="M1005.92 1195.89l2.51 3.95c10.98 12.94 21.72 26.58 33.21 38.95l.09 1.73-.92.12c-10.94-10.09-22.78-19.88-34.06-29.71-3.2-2.4-6.5-5.15-9.652-7.67 2.609-4.33 5.122-3.65 8.822-7.37z" />
    <path fill="#212155" d="M1005.92 1195.89l1.84-.93c5.37 2.91 24.92 3.72 32.24 4.27l39.39 3.83c-11.73 11.29-25.59 25.31-37.75 35.73-11.49-12.37-22.23-26.01-33.21-38.95l-2.51-3.95z" />
    <path fill="#31AFDD" d="M927.314 1128.23l7.592 8.05.242-.78c2.126-1.8 3.161-1.03 6.881-.94l11.944 11.72c-2.977 1.2-5.639 1.86-7.669 4.24 2.328 2.85 2.717 2.28 2.455 4.94-2.867 1.67-6.155 1.59-9.556 1.91-7.76-9.69-9.646-17.39-11.889-29.14z" />
    <path fill="#EFD346" d="M942.029 1134.56l11.944 11.72c-2.977 1.2-5.639 1.86-7.669 4.24-4.175-4.76-7.564-9.21-11.398-14.24l.242-.78c2.126-1.8 3.161-1.03 6.881-.94z" />
    <path fill="#DCD95B" d="M908.601 1107.31c4.069 2.81 8.097 5.68 12.082 8.62 5.759 5.15 16.699 13.85 21.346 18.63-3.72-.09-4.755-.86-6.881.94l-.242.78-7.592-8.05c-5.841-7.04-12.522-14.13-18.713-20.92z" />
    <path fill="#212155" d="M1422.57 441.996l1.48-2.046c2.25 2.166 10.88 65.284 12.33 74.278 19.67 7.81 53 18.842 70.38 27.134-22.93 10.356-44.34 22.917-67.69 32.294-.92 13.639-3.42 62.91-6.15 74.43l-.23.895-1.09.124a4460.13 4460.13 0 01-50.15-55.768c-24.13 7.271-49.58 13.997-73.92 20.754a4573.247 4573.247 0 0135.82-65.733c-13.15-21.221-27.88-42.572-41.82-63.383 25 4.142 50.68 8.287 75.34 13.873 15.02-16.903 29.1-40.002 45.7-56.852z" />
    <path fill="#C13875" d="M1301.53 484.975c25 4.142 50.68 8.287 75.34 13.873 3.52 3.156 2.74 3.459 6.63 4.086l3.19-1.273c-1.92 2.832-3.08 5.468-6.15 6.527-20.5-3.454-41.42-8.681-61.2-11.972 9.79 16.02 23.8 35.26 34.85 50.755-9.44 18.345-19.72 34.926-29.21 52.774 18.07-4.082 41.01-11.142 58.95-16.673 9.76 10.206 33.1 37.603 41.72 45.207 4.71 8.221 3.96 13.254 7.27 19.807l-.23.895-1.09.124a4460.13 4460.13 0 01-50.15-55.768c-24.13 7.271-49.58 13.997-73.92 20.754a4573.247 4573.247 0 0135.82-65.733c-13.15-21.221-27.88-42.572-41.82-63.383z" />
    <path fill="#31AFDD" d="M1422.57 441.996l1.48-2.046c2.25 2.166 10.88 65.284 12.33 74.278 19.67 7.81 53 18.842 70.38 27.134-22.93 10.356-44.34 22.917-67.69 32.294-.92 13.639-3.42 62.91-6.15 74.43-3.31-6.553-2.56-11.586-7.27-19.807 2.53-16.441 2.62-41.994 4.45-59.955 18.57-8.276 37.6-17.773 56.01-26.588-18.17-5.514-40.31-14.174-58.43-20.722-1.92-17.335-4.74-45.234-7.93-61.754.62-5.115 2.03-11.865 2.82-17.264z" />
    <path fill="#DF3679" d="M1376.87 498.848c15.02-16.903 29.1-40.002 45.7-56.852-.79 5.399-2.2 12.149-2.82 17.264a2943.236 2943.236 0 00-33.06 42.401l-3.19 1.273c-3.89-.627-3.11-.93-6.63-4.086z" />
    <path fill="#212155" d="M1519.1 842.897c12.71-8.926 31.31-21.661 44.77-28.993-3.94 16.803-7.1 33.945-10.44 50.893 12.08 11.696 27.09 21.398 39.35 33.103l-12.03 1.236c-7.74 1.091-31 4.83-37.85 3.923-3.47 4.739-17.97 42.813-20.25 50.126-3.79-7.843-19.84-47.884-27.24-47.97-13.94 1.094-32 .005-46.94.454 5.27-5.514 9.79-10.185 15.43-15.3 7.25-7.662 14.86-14.594 22.09-22.073-4.5-17.119-9.11-34.211-13.81-51.278 15.47 8.28 32.01 16.785 46.92 25.879z" />
    <path fill="#C13875" d="M1519.1 842.897c12.71-8.926 31.31-21.661 44.77-28.993-3.94 16.803-7.1 33.945-10.44 50.893 12.08 11.696 27.09 21.398 39.35 33.103l-12.03 1.236-1.99-5.853c-10.56-8.41-23.09-17.557-33.19-25.917l9.07-40.107c-11.11 4.856-24.88 15.394-36.08 21.838-12.53-5.347-24.88-14.697-37.53-20.534 3.4 13.84 8.12 27.921 11.23 41.252-5.16 5.782-21.91 23.453-28.09 27.545l-.07-1.121c-1.34-.328-.66-.034-1.99-1.032l1.79-4.838c7.25-7.662 14.86-14.594 22.09-22.073-4.5-17.119-9.11-34.211-13.81-51.278 15.47 8.28 32.01 16.785 46.92 25.879z" />
    <path fill="#C13875" d="M1463.9 890.369l-1.79 4.838c1.33.998.65.704 1.99 1.032l.07 1.121.25 2.079c3.81 1 4.8.905 8.82.97 7.21-.703 21.81-.386 29.58-.46 6.8 12.006 11.71 25.432 18.5 37.952 3.47-7.758 12.47-35.916 16.84-38.897l.62 2.372c3.06.119 1.98-.496 3.95 1.003l.17.68c-3.47 4.739-17.97 42.813-20.25 50.126-3.79-7.843-19.84-47.884-27.24-47.97-13.94 1.094-32 .005-46.94.454 5.27-5.514 9.79-10.185 15.43-15.3z" />
    <path fill="#DF3679" d="M1463.9 890.369l-1.79 4.838c1.33.998.65.704 1.99 1.032l.07 1.121.25 2.079c3.81 1 4.8.905 8.82.97 6.08 2.445 20.84-.071 25.1 2.186-6.24.944-5.8 1.457-12.68 1.144l-.01.189 1.91 1.519 1.91-.322c2.75-.438 3.24-.3 5.94.09-13.94 1.094-32 .005-46.94.454 5.27-5.514 9.79-10.185 15.43-15.3zM1538.16 899.004c8.23-2.646 28.89-2.371 40.6-5.721l1.99 5.853c-7.74 1.091-31 4.83-37.85 3.923l-.17-.68c-1.97-1.499-.89-.884-3.95-1.003l-.62-2.372z" />
    <path fill="#212155" d="M1204.61 858.346c10.12 8.44 27.63 24.112 37.61 31.233 15.89-6.643 31.61-14.308 47.59-20.361-5.81 15.539-11.87 31.283-17.47 46.872 7.83 11.789 18.39 22.903 25.43 34.289 1.78 1.696 1.98 2.112 3.47 4.094-3.74 1.844-41.39-1.593-47.92-2.425-7.58 12.741-18.5 28.372-26.8 41.059-4.9-15.856-9.03-30.229-12.23-46.53-7.85-1.451-40.15-8.436-46.38-11.215l-.32-1.346 2.39-1.605c11.73-8.516 27.31-16.451 37.49-24.461-.98-16.325-2.24-33.314-2.86-49.604z" />
    <path fill="#31AFDD" d="M1204.61 858.346c10.12 8.44 27.63 24.112 37.61 31.233 15.89-6.643 31.61-14.308 47.59-20.361-5.81 15.539-11.87 31.283-17.47 46.872 7.83 11.789 18.39 22.903 25.43 34.289-1.83.107-4.14-.425-6.03-.735-8.53-10.425-17.95-21.04-26.88-31.16 4-11.969 9.98-26.218 14.53-38.333-9.41 2.985-28.56 11.962-38.35 16.227-8.29-7.689-21.12-17.758-30.1-25.412 1.41 13.484 1.89 27.122 2.43 40.664-11.27 7.574-23.25 13.534-34.47 21.121-3.87.584-4.96.233-8.92-.34 11.73-8.516 27.31-16.451 37.49-24.461-.98-16.325-2.24-33.314-2.86-49.604z" />
    <path fill="#C13875" d="M1214.29 946.577c-7.85-1.451-40.15-8.436-46.38-11.215l-.32-1.346 2.39-1.605c3.96.573 5.05.924 8.92.34 9.03 3.21 29.36 7.174 39.12 8.548 3.38 11.591 6.84 26.922 10.64 37.758 7.36-10.446 15.05-23.894 22.16-33.296l40.92 3.883c1.89.31 4.2.842 6.03.735 1.78 1.696 1.98 2.112 3.47 4.094-3.74 1.844-41.39-1.593-47.92-2.425-7.58 12.741-18.5 28.372-26.8 41.059-4.9-15.856-9.03-30.229-12.23-46.53z" />
    <path fill="#212155" d="M1042.71 679.041c8.76-7.787 18.06-14.462 27.1-21.836-.76 15.036-1.38 30.079-1.86 45.126 10.82 7.423 23.87 14.493 33.91 22.026l2.13 1.77c-4.46 3.903-34.38 10.49-42.26 13.127-1.92 7.424-4.18 15.491-5.84 22.913-1.78 6.344-4.3 14.508-5.52 20.803l-7.49-11.644c-4.34-5.618-15.63-25.095-19.69-27.19-12.74 2.643-30.86 4.476-44.361 6.481l12.576-15.576c5.518-6.547 11.145-13.814 16.535-20.528-.67-5.174-12.764-30.83-15.613-38.167l-1.094-2.759c3.603-2.441 36.787 10.523 42.607 12.615l8.87-7.161z" />
    <path fill="#31AFDD" d="M1042.71 679.041c8.76-7.787 18.06-14.462 27.1-21.836-.76 15.036-1.38 30.079-1.86 45.126 10.82 7.423 23.87 14.493 33.91 22.026l-7.72.699c-8.42-5.774-23.27-13.92-32.23-18.55.5-12.255 1.08-24.507 1.75-36.754-8.44 4.862-16.73 12.047-24.3 18.315.66-3.577 1.86-5.747 3.35-9.026z" />
    <path fill="#C13875" d="M1101.86 724.357l2.13 1.77c-4.46 3.903-34.38 10.49-42.26 13.127-1.92 7.424-4.18 15.491-5.84 22.913l-4.4-5.777c2.02-6.47 3.67-15.235 5.14-22.035 10.72-2.051 26.72-6.382 37.51-9.299l7.72-.699z" />
    <path fill="#31AFDD" d="M992.327 676.346l-1.094-2.759c3.603-2.441 36.787 10.523 42.607 12.615l8.87-7.161c-1.49 3.279-2.69 5.449-3.35 9.026-1.01 1.114-4.21 3.347-5.57 4.364-10.89-4.536-24.44-8.974-35.741-13.147-2.101-1.678-3.212-1.883-5.722-2.938z" />
    <path fill="#C13875" d="M991.405 735.041l4.637 2.191c-2.265 3.057-2.821 2.639-2.512 5.452 6.075 2.009 24.79-2.445 30.77-4.642l-1.11 6.094c-12.74 2.643-30.86 4.476-44.361 6.481l12.576-15.576zM992.327 676.346c2.51 1.055 3.621 1.26 5.722 2.938 4.461 6.844 15.731 28.889 15.221 36.476-.62.98-2 3.31-2.63 4.105l-2.7-5.352c-.67-5.174-12.764-30.83-15.613-38.167z" />
    <path fill="#C13875" d="M1024.3 738.042c6.28 1.749 16.25 20.54 20.27 26.903l-1.69 6.381c-4.34-5.618-15.63-25.095-19.69-27.19l1.11-6.094z" />
    <path fill="#B92666" d="M1051.49 756.39l4.4 5.777c-1.78 6.344-4.3 14.508-5.52 20.803l-7.49-11.644 1.69-6.381c1.49 1.243 1.15.955 2.93 1.812 2.63-2.145 3.14-6.821 3.99-10.367z" />
    <path fill="#C13875" d="M991.405 735.041c5.518-6.547 11.145-13.814 16.535-20.528l2.7 5.352-14.598 17.367-4.637-2.191z" />
    <path fill="#212155" d="M1328.91 1056.89c7.54 5.92 15.16 11.66 22.06 18.33 4.36.95 32.39-11.21 41.1-13.2l-.41.95c-2.16 10.73-10.48 27.11-13.74 38.36 8.66 10.59 17.18 21.3 25.54 32.13-13.76-.8-28.83-1.4-42.45-2.7-5.46 8.32-16.69 26.39-22.48 33.3l-.76 1.13c-1.57-1.98-10.15-34.33-11.44-39.25-14.2-3.03-27.82-4.99-42.24-8.48l10.8-7.71c8.43-6.01 17.37-11.76 26.03-17.48.08-8.67-.7-20.87-.96-29.94 1.63-1.86 2.87-1.68 5.13-1.79l1.4.39 2.42-4.04z" />
    <path fill="#3C95B4" d="M1384.84 1069.48c2.9-1 4.75-4 6.82-6.51-2.16 10.73-10.48 27.11-13.74 38.36 8.66 10.59 17.18 21.3 25.54 32.13-13.76-.8-28.83-1.4-42.45-2.7-5.46 8.32-16.69 26.39-22.48 33.3.76-3.51.8-6.6 1.56-10.4 5.71-9.3 11.41-19.57 18.28-27.89 11.41.86 22.82 1.6 34.24 2.22-6.61-8.67-14.1-17.09-21.24-25.37 4.25-11.7 8.52-21.72 13.47-33.14z" />
    <path fill="#3089AA" d="M1294.89 1109.75l4.18 2.84-1.15 1.93c4.32 3.34 25.95 5.66 33.03 7.4 2.35 9.38 5.48 23.15 9.14 31.74-.76 3.8-.8 6.89-1.56 10.4l-.76 1.13c-1.57-1.98-10.15-34.33-11.44-39.25-14.2-3.03-27.82-4.99-42.24-8.48l10.8-7.71zM1350.97 1075.22c4.36.95 32.39-11.21 41.1-13.2l-.41.95c-2.07 2.51-3.92 5.51-6.82 6.51-11.42 3.65-21.83 8.9-32.52 12.44l-7.69-6.17c1.88-.33 4.38-.4 6.34-.53z" />
    <path fill="#3C95B4" d="M1294.89 1109.75c8.43-6.01 17.37-11.76 26.03-17.48 1.63.66 3.7 1.4 5.2 2.25-5.21 4.11-21.16 14.95-27.05 18.07l-4.18-2.84z" />
    <path fill="#3089AA" d="M1319.96 1062.33c1.63-1.86 2.87-1.68 5.13-1.79-.1 11.73.43 22.27 1.03 33.98-1.5-.85-3.57-1.59-5.2-2.25.08-8.67-.7-20.87-.96-29.94z" />
    <path fill="#3C95B4" d="M1328.91 1056.89c7.54 5.92 15.16 11.66 22.06 18.33-1.96.13-4.46.2-6.34.53-5.82-4.39-12.47-10.12-18.14-14.82l2.42-4.04z" />
    <path fill="#DF3679" d="M1039.53 1092.35c10.3-15.23 48.72-64.09 51.12-76.86 6.02 2.1 20.69 15.94 25.14 21.13-16.99 10.55-55.7 45.59-73.25 60.65l-3.01-4.92z" />
    <path fill="#31AFDD" d="M1028.28 953.197l17.59 4.273-27.18 88.36-2.27-5.13c4.5-29.09 8.45-58.265 11.86-87.503z" />
    <path fill="#F8D322" d="M950.955 943.902c3.672-6.175 5.753-23.277 7.202-31.166.756 6.862 1.802 25.792 5.882 30.174l3.001.01 2.25.616c1.091 3.827.906 4.12.237 8.161l-.707 1.809c2.9 4.972 15.246 13.892 20.222 19.082-8.952-3.432-17.218-6.647-26.41-9.476a1506.522 1506.522 0 01-5.722 29.095c-1.356-7.612-2.461-22.766-7.281-27.613-3.842-.767-3.428-.171-7.754 1.264l-.2-7.711 4.314-3.873.009-2.019-3.486-3.502c3.439-.35 5.287-2.528 8.443-4.851zM1171.47 1071c3.67-8.15 5.59-13.91 8.36-22.47-.16 7.26-.72 17.79.14 24.74l16.78-2.43c-4.87 3.11-9.66 5.48-14.37 8.41 2.44 4.04 4.68 7.67 7.34 11.6l-2.8 1.81c-3.18-2.24-7.08-4.6-10.41-6.72-2.7 7.6-5.49 15.17-8.36 22.71.76-7.55 4.18-16.62-1.5-21.85-4.55-1.56-9.27-.54-14.21-.03 6.73-3.56 9.34-4.87 14.58-10.43 2.51-2.3 2.64-2.26 4.45-5.34z" />
    <path fill="#B92666" d="M1140.11 1087.78c3.16.73 4.38 7.44 5.44 10.49-20.15 6.26-41.72 14.55-61.69 21.73-1.84.53-.92.5-2.76.12 5.14-3.8 17.96-10 24.14-13.13 12.4-6.29 22.95-12.06 34.87-19.21z" />
    <path fill="#DF3679" d="M1152.94 969.055l.51 1.288c-6.93 9.196-23.23 35.507-29.41 41.177-3.36.66-6-1.08-9.3-2.53-3.14-1.34-2.11-.24-3.79-2.73 1.45-2.64 36.24-31.714 41.99-37.205z" />
    <path fill="#31AFDD" d="M1023.51 875.741c.78 3.065-1.14 11.113-1.79 14.676 6.06.574 12.99.79 19.14 1.122a964.004 964.004 0 00-18.97 4.181l7.92 15.238-12.75-11.911c-3.1 5.596-4.93 8.777-8.68 14.026.06-2.448 3.78-13.423 4.78-16.529-7.06.318-11.86.341-18.913.019 6.343-1.565 11.823-3.283 18.043-5.25l-8.6-15.149 12.71 12.732 7.11-13.155z" />
    <path fill="#DCD95B" d="M1018.86 1130.56c10.86-7.89 17.55-16.04 30.32-24.84-5.97 6.64-18.44 18.83-23.2 24.84-5.17 5.81-12.43 14.55-17.71 19.85l-.65-9.46c4.87-3.91 7.01-5.58 11.24-10.39z" />
    <path fill="#EFD346" d="M924.323 933.39c8.98 3.378 17.851 6.623 26.632 10.512-3.156 2.323-5.004 4.501-8.443 4.851-4.755-4.55-12.935-10.964-18.189-15.363z" />
    <path fill="#B92666" d="M1039.53 1092.35l3.01 4.92c-7.24 6.54-14.24 14.27-22.12 19.79 6.57-8.14 13.17-16.09 19.11-24.71z" />
    <path fill="#EFD346" d="M967.04 942.92a374.84 374.84 0 0121.61-7.606c-5.391 4.36-14.598 11.464-19.123 16.383.669-4.041.854-4.334-.237-8.161l-2.25-.616zM941.675 958.147l.2 7.711-19.306 6.372 19.106-14.083zM1153.01 1061.62c6.65 3.09 12.18 5.57 18.46 9.38-1.81 3.08-1.94 3.04-4.45 5.34-3.66-4.86-9.55-10.33-14.01-14.72z" />
    <path fill="#3C95B4" d="M1318.88 1048.72l10.03 8.17-2.42 4.04-1.4-.39c-2.26.11-3.5-.07-5.13 1.79l-1.08-13.61zM1016.42 1040.7l2.27 5.13c-1.25 5.42-4.07 13.57-5.8 19.1.2-7.09 2.26-17.02 3.53-24.23z" />
    <path fill="#EFD346" d="M1189.72 1090.85c2.64 3.34 4.66 5.97 7.02 9.51l-9.82-7.7 2.8-1.81z" />
</svg>